# xmcd
#
# Track frame offsets: 
#        150
#        11650
#        22887
#        31915
#        42350
#        52825
#        64240
#        76055
#        87405
#        97752
#        110940
#        123287
#        134845
#        146630
#        159325
#
# Disc length: 2310 seconds
#
# Revision: 2
# Processed by: cddbd v1.5.2PL0 Copyright (c) Steve Scherf et al.
# Submitted via: ExactAudioCopy v0.99pb5
#
DISCID=bf09040f
DTITLE=Various Artist - Classic Country Vol. 13 Honky-Tonkin' 1952-1957 Disc 
DTITLE=2
DYEAR=1999
DGENRE=Country
TTITLE0=Red Sovine And Webb Pierce - Why Baby Wwhy
TTITLE1=Tommy Collins - You Better Not Do That
TTITLE2=Johnny Horton - I'm A One Woman Man
TTITLE3=Lefty Frizzell - Give Me More More More (Of Your Kisses)
TTITLE4=Johnny Cash - There You Go
TTITLE5=Jean Shepard And Ferlin Husky - A Dear John Letter
TTITLE6=Ray Price - My Shoes Keep Walking Back To You
TTITLE7=Hank Snow - (Now And Then There's) A Fool Such As I
TTITLE8=Elvis Presley - Hound Dog
TTITLE9=Jerry Lee Lewis - Whole Lotta Shakin' Going On
TTITLE10=Browns - I Take The Chance
TTITLE11=Webb Pierce - Slowly
TTITLE12=Eddy Arnold - Just Call Me Lonesome
TTITLE13=Porter Wagoner - A Satisfied Mind
TTITLE14=Rex Allen - Crying In The Chapel
EXTD=
EXTT0=
EXTT1=
EXTT2=
EXTT3=
EXTT4=
EXTT5=
EXTT6=
EXTT7=
EXTT8=
EXTT9=
EXTT10=
EXTT11=
EXTT12=
EXTT13=
EXTT14=
PLAYORDER=
